<svg aria-hidden="true" style="position:absolute;width:0;height:0;overflow:hidden" xmlns="http://www.w3.org/2000/svg"><defs><symbol id="icon-facebook" viewBox="0 0 32 32"><path d="M21.328 5.312h2.923V.224A36.483 36.483 0 0 0 20.143 0h-.156.008c-4.213 0-7.099 2.65-7.099 7.52V12H8.25v5.688h4.646V32h5.699V17.69h4.459l.707-5.688h-5.168V8.08c0-1.643.443-2.768 2.734-2.768z"/></symbol><symbol id="icon-instagram" viewBox="0 0 32 32"><path d="M31.968 9.408c-.074-1.701-.349-2.869-.744-3.882a7.84 7.84 0 0 0-1.847-2.837l-.001-.001A7.906 7.906 0 0 0 26.598.861l-.054-.018C25.523.449 24.362.176 22.661.101 20.949.019 20.405 0 16.059 0c-4.344 0-4.888.019-6.595.094-1.701.074-2.869.349-3.88.742a7.847 7.847 0 0 0-2.839 1.85l-.001.001A7.9 7.9 0 0 0 .919 5.465l-.018.054C.506 6.538.232 7.7.157 9.401c-.082 1.712-.101 2.256-.101 6.602 0 4.344.019 4.888.094 6.595.075 1.701.35 2.869.744 3.882a7.915 7.915 0 0 0 1.849 2.837l.001.001c.8.813 1.77 1.443 2.832 1.843 1.019.395 2.182.67 3.882.744 1.707.075 2.251.094 6.595.094 4.346 0 4.89-.019 6.595-.094 1.701-.074 2.869-.349 3.882-.742a8.237 8.237 0 0 0 4.664-4.628l.019-.055c.394-1.019.669-2.182.744-3.882.075-1.707.093-2.251.093-6.595s-.006-4.888-.08-6.595zm-2.88 13.066c-.07 1.563-.333 2.406-.552 2.97a5.336 5.336 0 0 1-3.001 3.024l-.036.013c-.563.219-1.413.482-2.97.55-1.688.075-2.194.094-6.464.094-4.269 0-4.782-.019-6.464-.094-1.563-.069-2.406-.331-2.97-.55a4.953 4.953 0 0 1-1.836-1.192l-.001-.001a4.978 4.978 0 0 1-1.184-1.803l-.011-.034c-.218-.563-.48-1.413-.549-2.97-.075-1.688-.094-2.195-.094-6.464 0-4.27.019-4.784.094-6.464.069-1.563.331-2.406.549-2.97a4.897 4.897 0 0 1 1.198-1.837l.002-.002a4.972 4.972 0 0 1 1.806-1.182l.034-.011c.56-.219 1.411-.48 2.968-.55 1.688-.074 2.194-.093 6.464-.093 4.275 0 4.782.019 6.464.093 1.562.069 2.406.331 2.97.55a4.91 4.91 0 0 1 1.837 1.194c.531.52.938 1.144 1.195 1.84.218.56.48 1.411.549 2.968.075 1.688.094 2.194.094 6.464 0 4.269-.019 4.768-.094 6.458z"/><path d="M16.059 7.782a8.223 8.223 0 0 0-8.219 8.221v.002a8.222 8.222 0 1 0 16.444 0 8.222 8.222 0 0 0-8.222-8.222h-.002zm0 13.552a5.333 5.333 0 0 1 .001-10.666h.001a5.334 5.334 0 1 1 0 10.668zM26.525 7.458a1.92 1.92 0 0 1-3.84 0 1.92 1.92 0 0 1 3.84 0z"/></symbol><symbol id="icon-linkedin" viewBox="0 0 32 32"><path d="M31.992 32H32V20.262c0-5.741-1.237-10.163-7.947-10.163-3.227 0-5.392 1.77-6.277 3.45h-.093v-2.914h-6.365v21.363h6.627V21.42c0-2.786.528-5.48 3.978-5.48 3.398 0 3.448 3.179 3.448 5.658V32h6.621zM.528 10.635h6.635V32H.528V10.635zM3.843 0A3.843 3.843 0 0 0 0 3.843c0 2.12 1.722 3.878 3.843 3.878 2.12 0 3.842-1.757 3.842-3.878S5.965.002 3.844 0z"/></symbol><symbol id="icon-logo" viewBox="0 0 38 32"><path d="m21.774 9.64-.717-.571a.528.528 0 0 0-.765.079l-.001.001-9.915 11.897.153.177 2.455-2.366a.381.381 0 0 1-.19-.177l-.001-.002a.41.41 0 0 1-.037-.268v.003a.401.401 0 0 1 .134-.229.363.363 0 0 1 .237-.087h.006c.08 0 .157.027.221.076s.11.117.134.196l.001.003 3.238-3.137a.273.273 0 0 1 .351 0l.164.126a.264.264 0 0 0 .365-.046v-.001l4.233-4.96a.49.49 0 0 0 .063-.567l.001.003a.473.473 0 0 0-.129-.148l-.001-.001z"/><path d="M26.433 12.989a21.493 21.493 0 0 1-7.022 3.477l-.153.037c-2.298.638-4.968 1.071-7.716 1.208l-.088.003c.053.406.149.805.285 1.189 1.487 1.406 12.687-.994 14.875-3.771.465-.577-.181-2.143-.181-2.143zm-13.3 5.868a.36.36 0 0 1-.207-.066l.001.001a.39.39 0 0 1-.136-.172l-.001-.003a.404.404 0 0 1 .08-.423.36.36 0 0 1 .408-.083l-.002-.001a.395.395 0 0 1 .229.358v.004a.396.396 0 0 1-.108.272.366.366 0 0 1-.263.112h-.001zM2.551 12.166l.088-.394 1.422.337c.117.226.19.475.213.731a2.54 2.54 0 0 1-.049.811c-.074.384-.24.72-.473.998l.003-.003c-.219.26-.504.457-.829.568l-.013.004a1.93 1.93 0 0 1-1.047.038l.013.003a1.896 1.896 0 0 1-.913-.503 1.904 1.904 0 0 1-.517-.884l-.003-.013a2.271 2.271 0 0 1 .003-1.158l-.004.016c.059-.28.165-.547.312-.789.14-.22.327-.402.547-.531l.197.314c-.189.121-.35.282-.474.473a1.66 1.66 0 0 0-.246.625l-.001.01a1.87 1.87 0 0 0 .019.91l-.003-.013c.074.278.219.529.421.726.207.21.467.354.749.417.274.08.563.08.837 0 .262-.09.497-.25.683-.463.191-.23.323-.507.383-.806a1.825 1.825 0 0 0-.07-1.104l.004.012-1.253-.331zm3.096-3.595-1.274 1.777.547 1.023-.251.354-2.023-3.857.235-.337 4.118.926-.257.354-1.094-.24zm-.361-.091-2.187-.514 1.094 2.051L5.287 8.48zm0-3.594.328-.257 2.083 2.914L9.415 6.2l.207.291-2.04 1.594-2.297-3.2zm3.445-2.383.366-.171 1.444 3.303 1.953-.926.142.331-2.318 1.103-1.586-3.64zm7.208 1.314.082.36-2.635.646-.875-3.897 2.56-.623.076.354-2.187.531.312 1.383 1.925-.474.082.354-1.93.469.328 1.446 2.264-.549zm3.757.143-.914-1.257a2.603 2.603 0 0 1-.306 0l-1.029.034.038 1.269h-.405l-.126-4L18.409 0a1.67 1.67 0 0 1 1.159.326 1.284 1.284 0 0 1 .448.994l.002.079c0 .267-.076.516-.208.726l.003-.006a1.287 1.287 0 0 1-.625.483l-.009.003.957 1.337-.443.017zm-.383-1.88a.945.945 0 0 0 .279-.749v-.02a.957.957 0 0 0-.083-.39l.002.006a.931.931 0 0 0-.241-.326L19.269.6a1.28 1.28 0 0 0-.863-.234h.005l-1.04.04.066 2 1.017-.034.046.001c.31 0 .594-.11.815-.294l-.002.002zm3.276.817-.197 1.366-.399-.063.202-1.343L21.064 0l.426.069.967 2.434 1.64-2.017.383.086-1.891 2.326zm5.408-.24.476.646-.208.171-.475-.663-.301.749-.23-.103.306-.749-.787.109v-.274l.777-.091-.482-.646.213-.171.421.651.295-.754.235.103-.279.766.788-.114v.28l-.75.091zm1.827 4.606a1.6 1.6 0 0 1-.234-.684l-.001-.007.322-.149c.025.226.095.445.208.64.122.219.281.413.47.571.194.195.443.321.711.36.097.009.194-.006.283-.045s.169-.1.231-.178a.534.534 0 0 0 .127-.347l-.002-.044v.002a1.1 1.1 0 0 0-.134-.4l.003.005a6.105 6.105 0 0 0-.334-.509 5.053 5.053 0 0 1-.38-.601l-.014-.028a1.158 1.158 0 0 1-.142-.536v-.001a.86.86 0 0 1 .214-.571c.119-.151.276-.263.454-.326a1.04 1.04 0 0 1 .614.002l-.007-.002c.255.087.491.227.695.411.168.146.317.315.443.503.116.174.203.367.257.571l-.312.171a2.052 2.052 0 0 0-.245-.545l.005.008a2.058 2.058 0 0 0-.363-.392l-.003-.003a1.19 1.19 0 0 0-.7-.348l-.006-.001a.558.558 0 0 0-.289.051l.003-.001a.595.595 0 0 0-.227.184l-.001.002a.508.508 0 0 0-.125.391v-.002a.967.967 0 0 0 .131.406c.077.131.186.303.334.509.146.194.278.401.394.617.09.163.141.349.147.537a.86.86 0 0 1-.214.571.976.976 0 0 1-.459.326.998.998 0 0 1-.607 0 2.025 2.025 0 0 1-.702-.413l.002.002a2.606 2.606 0 0 1-.54-.695l-.007-.014zm5.502.834-.771-1.143.285-.211 1.777 2.651-.284.211-.771-1.143-2.854 2.086-.23-.349 2.849-2.103zm-1.225 4.697c.097-.345.287-.655.547-.891.243-.229.546-.395.884-.472l.013-.002a1.906 1.906 0 0 1 1.041.044l-.013-.004c.322.111.61.309.837.571.229.275.392.611.463.981l.002.014a2.306 2.306 0 0 1-.003 1.118l.003-.016a2.009 2.009 0 0 1-1.453 1.38l-.014.003a1.944 1.944 0 0 1-1.046-.05l.014.004a1.838 1.838 0 0 1-.834-.568l-.002-.003a2.171 2.171 0 0 1-.463-.975l-.002-.014a2.306 2.306 0 0 1 .032-1.137l-.004.016zm.716 1.817c.183.217.419.377.683.463.273.083.56.093.838.029.292-.069.544-.207.75-.395l-.001.001c.202-.194.35-.44.431-.714a1.885 1.885 0 0 0 .019-.899l.002.013a1.868 1.868 0 0 0-.38-.798l.003.003a1.554 1.554 0 0 0-.694-.46l-.011-.003a1.552 1.552 0 0 0-.853.003l.011-.003a1.49 1.49 0 0 0-.744.395 1.6 1.6 0 0 0-.429.709l-.003.011a1.767 1.767 0 0 0 .002.898l-.003-.012c.06.283.19.546.377.76zm-1.132 4.818 1.416-.571c0-.103.033-.206.061-.314l.268-1.034-1.16-.314.104-.406 3.697 1.034-.371 1.446a1.828 1.828 0 0 1-.631 1.06l-.003.003a1.139 1.139 0 0 1-1.039.16 1.187 1.187 0 0 1-.669-.429l-.002-.003a1.27 1.27 0 0 1-.265-.774l-1.509.571.104-.429zm1.832.16c.064.121.151.228.255.314a.961.961 0 0 0 .608.218.937.937 0 0 0 .513-.152l-.004.002c.241-.203.406-.488.465-.806l.263-1.029-1.854-.52-.262 1.029a1.421 1.421 0 0 0 .019.953l-.003-.01zm-3.795 3.52-.279-.223 1.64-2.257 3.052 2.417-1.586 2.189-.279-.223 1.339-1.846-1.094-.863-1.198 1.651-.273-.217 1.225-1.651-1.132-.897-1.417 1.92zm-1.28 4.554-.782.046v-.274l.782-.006-.421-.68.214-.143.415.686.339-.766.235.131-.371.72.782-.046v.28h-.793l.421.68-.213.143-.416-.686-.361.743-.23-.137.399-.691zm-7.109-.457.662.383c.111-.223.266-.418.454-.574s.406-.268.64-.329c.217-.071.446-.096.672-.074.197.015.386.087.547.206a.893.893 0 0 1 .306.457c.066.226.054.469-.033.686a2.854 2.854 0 0 1-.547.794c.18.101.347.226.497.371a1 1 0 0 1 .225.394.788.788 0 0 1-.144.67l.001-.002a1.054 1.054 0 0 1-.605.438l-.007.002a.918.918 0 0 1-.684-.002l.006.002a.695.695 0 0 1-.25-.193l-.001-.001a.726.726 0 0 1-.142-.286l-.001-.005a.81.81 0 0 1 .039-.571c.132-.27.294-.502.487-.704l-.001.001-1.318-.766a2.87 2.87 0 0 0-.033.817h-.333a2.83 2.83 0 0 1 .115-1.014l-.005.02-.689-.4.142-.32zm.951.571 1.449.84c.19-.19.347-.411.465-.657a.756.756 0 0 0 0-.514.625.625 0 0 0-.14-.266l.001.001a.585.585 0 0 0-.239-.162l-.004-.001a1.054 1.054 0 0 0-.707.002l.007-.002a1.287 1.287 0 0 0-.506.273 1.374 1.374 0 0 0-.344.462l-.003.009.022.017zm2.057 2.286a.526.526 0 0 0 .043-.427l.001.004a.711.711 0 0 0-.175-.297 2.27 2.27 0 0 0-.454-.314 2.947 2.947 0 0 0-.432.571.58.58 0 0 0-.043.427l-.001-.004a.466.466 0 0 0 .238.301l.003.001a.586.586 0 0 0 .432 0 .657.657 0 0 0 .365-.266l.002-.002.022.006zm-9.675 1.548.077-4h.389l-.061 3.2 1.553-2.663h.191l1.455 2.709.054-3.183h.389l-.071 4h-.334L18.7 28.685l-1.701 2.931-.334-.006zm-1.903-4.182c.25.249.429.566.517.915s.081.717-.019 1.063c-.094.365-.275.68-.52.932a1.811 1.811 0 0 1-.868.5l-.012.003a2.003 2.003 0 0 1-1.075-.039l.014.004a2.04 2.04 0 0 1-.919-.52 1.942 1.942 0 0 1-.506-.889l-.003-.013a2.213 2.213 0 0 1 .021-1.097l-.004.015c.1-.364.284-.678.53-.93.23-.241.522-.42.851-.511l.013-.003a2.014 2.014 0 0 1 1.069.038l-.014-.004c.364.099.676.286.924.537zm-1.865-.2c-.28.07-.52.215-.705.411l-.001.001a1.667 1.667 0 0 0-.413.748l-.002.012a1.704 1.704 0 0 0 0 .874c.065.278.203.531.399.731.206.21.46.362.738.44.278.074.569.074.847 0 .267-.069.513-.211.711-.411.2-.21.344-.473.415-.76a1.697 1.697 0 0 0-.003-.892l.003.012a1.632 1.632 0 0 0-.405-.732l.001.001a1.626 1.626 0 0 0-.732-.432l-.011-.003a1.54 1.54 0 0 0-.853.002l.011-.003zm-4.14-2.658.147 1.571c.094.042.185.09.274.143l.891.537.602-1.109.355.211-1.914 3.446-1.247-.749a1.8 1.8 0 0 1-.816-.902l-.004-.012a1.302 1.302 0 0 1 .124-1.092l-.003.006c.127-.25.329-.451.574-.571.249-.108.526-.13.787-.063l-.158-1.68.389.263zm-.623 1.806a.954.954 0 0 0-.357.179l.002-.002a1.062 1.062 0 0 0-.35 1.117l-.002-.008c.129.296.351.536.629.68l.88.531.958-1.714-.881-.531a1.3 1.3 0 0 0-.883-.28h.003v.029zm-2.614-4.486.246-.257 1.887 2.029-2.734 2.789-1.821-1.966.251-.257 1.548 1.663.935-.989-1.356-1.474.262-.263 1.383 1.486 1.017-1.034-1.618-1.726zm-4.064-2.245.131-.789.257.04-.147.811.727-.28.087.251-.738.263.607.537-.175.206-.585-.571-.137.811-.262-.051.153-.811-.733.274-.082-.223.733-.269-.608-.531.181-.206.591.537z"/></symbol><symbol id="icon-twitter" viewBox="0 0 32 32"><path d="M32 6.078c-1.1.493-2.376.857-3.713 1.028l-.068.007a6.556 6.556 0 0 0 2.873-3.579l.013-.046a12.88 12.88 0 0 1-4.076 1.573l-.084.014A6.558 6.558 0 0 0 15.6 9.557v.004c0 .52.043 1.021.152 1.496-5.454-.266-10.28-2.88-13.522-6.861a6.524 6.524 0 0 0-.902 3.313v.001a6.57 6.57 0 0 0 2.914 5.451 6.453 6.453 0 0 1-2.994-.823l.033.017v.072a6.592 6.592 0 0 0 5.213 6.44l.043.008a6.403 6.403 0 0 1-1.662.215h-.061.003c-.419 0-.843-.024-1.242-.112.85 2.598 3.261 4.509 6.13 4.57a13.093 13.093 0 0 1-8.122 2.8H1.57h.001-.062c-.531 0-1.055-.034-1.569-.099l.061.006c2.826 1.846 6.287 2.944 10.004 2.944h.063-.003c12.072 0 18.672-10 18.672-18.669 0-.288-.01-.57-.024-.848a13.203 13.203 0 0 0 3.258-3.355l.03-.047z"/></symbol><symbol id="icon-phone" viewBox="0 0 32 32">
<path d="M24.882 19.773l-3.268-0.373c-0.785-0.090-1.557 0.18-2.11 0.733l-2.367 2.367c-3.641-1.853-6.626-4.825-8.478-8.478l2.38-2.38c0.553-0.553 0.823-1.325 0.733-2.11l-0.373-3.242c-0.154-1.299-1.248-2.277-2.56-2.277h-2.226c-1.454 0-2.663 1.209-2.573 2.663 0.682 10.987 9.469 19.761 20.443 20.443 1.454 0.090 2.663-1.119 2.663-2.573v-2.226c0.013-1.3-0.965-2.393-2.264-2.547z"></path><symbol id="icon-email" viewBox="0 0 32 32">
<path d="M26.667 5.333h-21.333c-1.467 0-2.653 1.2-2.653 2.667l-0.013 16c0 1.467 1.2 2.667 2.667 2.667h21.333c1.467 0 2.667-1.2 2.667-2.667v-16c0-1.467-1.2-2.667-2.667-2.667zM26.133 11l-9.427 5.893c-0.427 0.267-0.987 0.267-1.413 0l-9.427-5.893c-0.333-0.213-0.533-0.573-0.533-0.96 0-0.893 0.973-1.427 1.733-0.96l8.933 5.587 8.933-5.587c0.76-0.467 1.733 0.067 1.733 0.96 0 0.387-0.2 0.747-0.533 0.96z"></path>
</symbol><symbol id="icon-person" viewBox="0 0 32 32">
<path d="M16 16c2.947 0 5.333-2.387 5.333-5.333s-2.387-5.333-5.333-5.333c-2.947 0-5.333 2.387-5.333 5.333s2.387 5.333 5.333 5.333zM16 18.667c-3.56 0-10.667 1.787-10.667 5.333v1.333c0 0.733 0.6 1.333 1.333 1.333h18.667c0.733 0 1.333-0.6 1.333-1.333v-1.333c0-3.547-7.107-5.333-10.667-5.333z"></path>
</symbol> <symbol id="icon-check" viewBox="0 0 42 32">
<path  d="M6.263 15.205l-0.22-0.21-3.307 3.132 11.651 11.114 24.477-23.351-3.285-3.134-21.192 20.197-8.124-7.75z"></path>
</symbol></defs></svg>