<svg width="40" height="11" fill="none" xmlns="http://www.w3.org/2000/svg"><path d="M2.737 1.212A1.492 1.492 0 0 0 1.611.757a1.675 1.675 0 0 0-.65.122 1.463 1.463 0 0 0-.832.842c-.08.2-.119.413-.116.628v3.794c-.01.267.042.533.149.778.09.195.219.368.38.509.151.127.329.22.52.27.185.051.376.078.567.078.211.002.42-.043.612-.132a1.598 1.598 0 0 0 .96-1.465v-.424h-.993v.338a.881.881 0 0 1-.058.338.608.608 0 0 1-.144.214.697.697 0 0 1-.415.145.504.504 0 0 1-.465-.204.899.899 0 0 1-.132-.508V2.542c-.006-.196.036-.39.122-.567a.507.507 0 0 1 .485-.229.526.526 0 0 1 .443.214.806.806 0 0 1 .164.509v.328h.982V2.41a1.788 1.788 0 0 0-.121-.664 1.563 1.563 0 0 0-.332-.534ZM8.629 1.17A1.765 1.765 0 0 0 7.5.751c-.202 0-.403.037-.592.107A1.559 1.559 0 0 0 6 1.7c-.1.231-.15.482-.145.734v3.64c-.006.255.043.51.145.744.09.196.22.37.384.51.152.14.33.249.524.32a1.712 1.712 0 0 0 1.72-.32c.158-.143.286-.316.374-.51.102-.234.151-.489.145-.745V2.435a1.77 1.77 0 0 0-.145-.734 1.643 1.643 0 0 0-.374-.532Zm-.463 4.904a.654.654 0 0 1-.197.527.726.726 0 0 1-.934 0 .651.651 0 0 1-.197-.527V2.435a.654.654 0 0 1 .197-.526.726.726 0 0 1 .934 0 .651.651 0 0 1 .197.526v3.64ZM16.367 7.7V.81h-.953L14.16 4.458h-.017L12.88.811h-.943v6.888h.984V3.51h.018l.963 2.962h.491l.972-2.962h.017v4.19h.984ZM21.958 1.294c-.151-.17-.343-.3-.556-.377a2.183 2.183 0 0 0-.714-.106h-1.462v6.888h.982V5.01h.505c.307.014.611-.051.886-.188a1.43 1.43 0 0 0 .539-.527c.113-.183.19-.387.225-.6.038-.259.056-.521.053-.783.01-.33-.023-.662-.096-.984a1.467 1.467 0 0 0-.362-.633Zm-.506 2.1a.866.866 0 0 1-.091.359.553.553 0 0 1-.253.241 1.007 1.007 0 0 1-.463.087h-.448V1.739h.506a.942.942 0 0 1 .443.086.556.556 0 0 1 .23.254c.054.121.083.252.086.384v.458c0 .16.01.326 0 .473h-.01ZM26.608.81h-.805L24.285 7.7h.982l.288-1.48h1.338l.289 1.48h.982L26.607.81Zm-.906 4.471.483-2.497h.018l.48 2.497h-.981ZM32.95 4.96h-.018L31.45.81h-.944V7.7h.982V3.556h.02l1.5 4.142h.923V.811h-.981v4.15ZM38.948.81l-.79 2.74h-.02l-.79-2.74H36.31l1.348 3.978v2.911h.982V4.788L39.987.81h-1.04ZM0 9.645h.473v1.327h.321V9.645h.47v-.273H0v.273ZM3.977 9.372l-.62 1.6h.341l.132-.364h.637l.137.364h.35l-.636-1.6h-.341Zm-.05.967.217-.593.217.593h-.435ZM7.908 10.382h.37v.206a.613.613 0 0 1-.38.135.404.404 0 0 1-.34-.153.669.669 0 0 1-.118-.417c0-.356.154-.534.46-.534a.338.338 0 0 1 .362.255l.316-.061c-.068-.313-.293-.47-.678-.47a.805.805 0 0 0-.559.205.781.781 0 0 0-.23.615.873.873 0 0 0 .205.6.776.776 0 0 0 .607.235.96.96 0 0 0 .678-.255v-.63h-.693v.27ZM11.923 9.372h-.324v1.6h1.12V10.7h-.796V9.372ZM15.318 9.372h-.324v1.6h.324v-1.6ZM18.637 10.44l-.656-1.068h-.313v1.6h.3V9.927l.643 1.045h.322v-1.6h-.296v1.069ZM21.637 10.268h.797v-.273h-.797v-.35h.857v-.273h-1.181v1.6h1.214V10.7h-.89v-.432ZM28.912 10.003h-.63v-.63h-.32v1.599h.32v-.7h.63v.7h.322v-1.6h-.322v.631ZM31.93 10.268h.8v-.273h-.8v-.35h.86v-.273H31.61v1.6h1.212V10.7h-.89v-.432ZM36.023 10.268c.278-.044.42-.191.42-.445a.383.383 0 0 0-.157-.356.904.904 0 0 0-.468-.095h-.678v1.6h.322v-.669h.063a.431.431 0 0 1 .2.036c.047.029.086.069.114.117l.349.508h.384l-.195-.312a1.115 1.115 0 0 0-.354-.384Zm-.324-.222h-.237v-.401h.253a.839.839 0 0 1 .326.038.209.209 0 0 1-.015.325.913.913 0 0 1-.327.038ZM39.11 10.268h.796v-.273h-.796v-.35h.86v-.273h-1.184v1.6H40V10.7h-.89v-.432Z" fill="#AFB1B8"/></svg>